Patient4_TMGait_0pt5_02_right_19_EMG.mot
version=1
nRows=20
nColumns=33
inDegrees=no
endheader
time	1LAddLong	2LGlutMax	3LGlutMed	4LIliopsoas	5LSemiMemb	6LBicFemLong	7LRecFem	8LVastMed	9LVastLat	10LGasMed	11LTibAnt	12lTibPost	13LPeroneusLong	14LSol	15LExtDigLong	16LFlexDigLong	17RAddLong	18RGlutMax	19RGlutMed	20RIliopsoas	21RSemiMemb	22RBicFemLong	23RRecFem	24RVastMed	25RVastLat	26RGasMed	27RTibAnt	28RTibPost	29RPeroneusLong	30RSol	31RExtDigLong	32RFlexDigLong
25.17	-0.009308	0.22476	-0.012665	-0.005798	0.004883	-0.027008	-0.23422	-0.010986	0.059662	-0.047607	0.087433	-0.013123	-0.10162	0.026093	0.007782	-0.061035	-0.053101	-0.10208	-0.12054	-0.021057	0.10788	-0.3157	-0.000458	0.38071	-0.043335	0.010223	-0.19714	-0.005188	0.31952	0.028992	-0.001831	-0.024109
25.171	0.000305	0.21957	-0.006866	-0.025482	-0.008698	-0.035553	-0.23102	-0.006104	0.047607	-0.02594	0.089264	-0.0177	-0.14038	0.040741	-0.029297	-0.071106	-0.056458	-0.083008	-0.32272	-0.080872	0.081787	-0.38132	0.050812	0.4364	-0.002136	0.004272	-0.18662	-0.010681	-1.1038	0.03006	0.005035	-0.023346
25.172	-0.007782	0.24155	0.015259	-0.020294	0.010529	-0.03006	-0.2211	-0.005188	0.035248	-0.019379	0.052185	-0.01709	-0.14313	0.050507	0.007324	-0.064545	-0.081787	0.03006	0.080719	-0.090179	0.21133	-0.53162	0.034027	0.36728	0.053406	-0.005951	0.066986	-0.006561	-0.85159	0.036926	0.00061	-0.024109
25.173	0.00473	0.24185	0.01236	-0.00473	0.005493	-0.00061	-0.2681	-0.00351	0.019684	-0.009003	0.098114	-0.018005	-0.17487	0.070343	0.058594	-0.066071	-0.036621	-0.098114	0.39948	-0.063934	0.05722	-0.72494	0.1152	0.19318	0.023804	-0.014191	0.29236	-0.008087	-0.17929	0.10574	0.004883	-0.022888
25.174	0.009308	0.27054	0.001678	0.027466	0.005341	0.029144	-0.33279	0.009766	0.03006	0.059204	0.14282	-0.022736	-0.14282	0.079956	-0.031128	-0.06012	0.006256	-0.062714	0.1741	-0.005493	-0.022888	-0.57022	0.27603	0.043945	-0.046082	-0.013885	0.16129	-0.006409	0.22064	0.089111	-0.00061	-0.0177
25.175	0.000458	0.23209	-0.014496	0.025635	-0.012207	0.053406	-0.34347	0.009308	0.019073	0.057983	0.13641	-0.027618	-0.13825	0.07431	-0.007019	-0.075073	0.008392	0.023804	-0.26672	-0.019684	-0.00412	-0.21866	0.34485	-0.087433	-0.055847	-0.011902	-0.010223	-0.006409	0.23865	0.071564	0.00061	-0.015564
25.176	0.003815	0.25299	-0.015106	0.015869	-0.003052	0.070038	-0.31357	0.015869	0.004272	0.09552	0.031891	-0.026093	-0.15717	0.072174	0.11688	-0.070496	0.03067	-0.040436	-0.84976	-0.11505	-0.099487	0.010681	0.35461	-0.060272	-0.041809	-0.00885	-0.095215	-0.011597	0.26642	0.056305	0.000458	-0.009308
25.177	0.000153	0.26611	0.001373	0.015411	-0.006714	0.0737	-0.31601	0.021515	0.005341	0.054016	-0.046539	-0.029449	-0.14587	0.10025	-0.091553	-0.062866	0.016632	-0.21835	-0.95337	-0.091095	-0.10986	0.20584	0.37262	-0.012512	-0.072479	-0.003204	-0.063782	-0.002899	0.62485	0.002136	0.001221	-0.009155
25.178	-0.003967	0.30838	0.009766	0.017548	0.007172	0.070953	-0.30075	0.014038	0.000153	0.037842	0.19211	-0.026398	-0.18295	0.12421	0.024414	-0.075531	0.000305	-0.38849	-0.47043	-0.02121	0.045929	0.25879	0.51407	-0.050659	-0.05249	-0.001678	0.087585	-0.003662	-0.14816	-0.15991	-0.005798	-0.00824
25.179	-0.005798	0.30823	0.006409	0.012665	-0.007629	0.091705	-0.20432	0.005035	0.016022	0.008392	0.3595	-0.030518	-0.23575	0.10605	-0.1445	-0.074463	0.045929	-0.55252	0.3717	0.1442	-0.083618	0.11261	0.60776	-0.084534	-0.053406	-0.000153	0.17151	0.001678	-0.70038	-0.14908	0.003662	-0.003815
25.18	-0.014038	0.29221	0.00824	0.003967	-0.002594	0.077362	-0.21286	0.004272	0.006104	-0.087128	0.002289	-0.031891	-0.10864	0.14343	-0.20309	-0.055389	0.040131	-0.71808	-0.25986	0.046692	-0.003662	0.14694	0.53406	-0.006866	0.34454	-0.008087	0.064087	-0.004578	-0.63767	-0.024414	0.000153	-0.001221
25.181	-0.011597	0.31906	0.019531	-0.005798	-0.005951	0.059509	-0.22232	0.012817	0.014801	-0.085449	-0.16617	-0.030975	0.027161	0.15823	0.11948	-0.05249	0.081787	-0.71045	0.16861	-0.063019	0.067749	0.11063	0.49561	-0.081024	0.57068	-0.006866	-0.068207	-0.002747	-0.80048	0.060425	0.001678	-0.016327
25.182	-0.012054	0.31784	-0.011597	0.006714	-0.003052	0.048676	-0.25513	0.023193	0.013275	-0.016174	-0.23422	-0.032501	0.012054	0.10834	0.53833	-0.055695	0.035248	-0.56458	-0.41977	-0.020294	0.04715	0.17853	0.457	0.005798	0.62698	0.005646	-0.072479	-0.005798	-0.93445	0.032959	0.00351	-0.011444
25.183	-0.028992	0.31464	-0.028381	0.006256	-0.00412	0.044098	-0.22324	0.014191	0.018768	-0.007172	-0.060425	-0.02243	-0.036163	0.067291	0.28458	-0.058441	-0.058136	-0.30472	-0.6424	0.063171	-0.4776	0.007782	0.19104	0.21927	0.53711	0.00473	-0.12665	-0.003357	-0.2153	0.037079	0.002899	-0.014496
25.184	-0.023346	0.28686	-0.021973	0.009003	-0.006409	0.058136	-0.16342	0.023651	0.016479	0.005035	-0.065155	-0.026093	-0.049744	0.067291	-0.61172	-0.060272	-0.1384	-0.14984	-0.25833	0.1831	-0.60364	-0.090942	0.09491	0.11215	0.36941	-0.013275	-0.089874	-0.00351	1.4052	-0.020599	0.009766	-0.022278
25.185	-0.027008	0.25696	-0.018616	0.00946	-0.003052	0.056458	-0.10132	0.000763	0.019073	0.008087	-0.27069	-0.030212	-0.034027	0.042877	-0.5365	-0.055695	-0.11673	-0.1207	0.56519	0.16464	-0.17822	-0.016327	-0.032196	0.046997	0.091095	-0.017548	0.023499	0.001373	2.2029	-0.083771	0.004425	-0.027161
25.186	-0.02655	0.23834	-0.000305	0.009766	-0.00885	0.039368	-0.11368	0.019379	0.031128	0.022125	-0.30045	-0.03006	-0.00824	0.003204	-0.47226	-0.053406	-0.07019	-0.15182	0.56778	0.052643	0.15106	-0.13275	-0.072327	0.19699	-0.062103	-0.012207	0.1059	-0.00412	0.50217	-0.095215	-0.002899	-0.023346
25.187	-0.007019	0.28519	0.016479	-0.007935	-0.003357	0.027161	-0.1062	0.014648	0.034637	0.043182	-0.18997	-0.027008	-0.028687	-0.030365	-0.63507	-0.049286	0.015106	-0.097046	0.2298	-0.061035	0.30853	-0.2626	0.18066	0.14557	-0.36728	0.000305	0.29312	-0.001526	-1.396	-0.11169	0.002441	-0.018921
25.188	-0.005646	0.28259	0.019684	0.00946	-0.007782	0.030212	-0.12894	0.011749	0.04303	0.055542	-0.14847	-0.020752	-0.045166	-0.080872	-0.19134	-0.033417	0.093079	-0.072479	0.1535	-0.046082	0.27954	-0.18936	0.31067	0.050049	-0.77011	0.012817	0.12787	-0.003662	-0.48248	-0.17807	0.002899	-0.014954
25.189	-0.005188	0.31372	0.047607	0.006561	-0.001831	0.021362	-0.11581	0.011902	0.05722	0.079803	0.016632	-0.019989	-0.10696	-0.018921	0.084686	-0.016632	0.12344	-0.044098	0.40543	0.10101	0.25848	-0.023346	0.35507	-0.15305	-0.88425	-0.007324	0.049744	-0.009613	-0.033569	0.003357	-0.000916	-0.019073
